<?xml version="1.0" standalone="no"?>
<!DOCTYPE svg PUBLIC "-//W3C//DTD SVG 20010904//EN"
 "http://www.w3.org/TR/2001/REC-SVG-20010904/DTD/svg10.dtd">
<svg version="1.0" xmlns="http://www.w3.org/2000/svg"
 width="1024.000000pt" height="1024.000000pt" viewBox="0 0 1024.000000 1024.000000"
 preserveAspectRatio="xMidYMid meet">

<g transform="translate(0.000000,1024.000000) scale(0.100000,-0.100000)"
fill="#000000" stroke="none">
<path d="M0 5120 l0 -5120 5120 0 5120 0 0 5120 0 5120 -5120 0 -5120 0 0
-5120z m3635 1415 c144 -37 250 -117 306 -230 52 -106 59 -166 59 -530 1 -389
6 -446 56 -554 20 -43 34 -87 32 -97 -5 -27 -147 -123 -182 -124 -35 0 -81 45
-127 127 -18 32 -33 60 -35 62 -1 1 -35 -24 -74 -58 -128 -111 -261 -160 -427
-161 -152 0 -266 42 -351 128 -162 167 -157 482 11 645 146 143 371 189 670
137 64 -11 123 -23 131 -26 14 -5 16 8 16 98 0 275 -90 368 -355 368 -103 0
-222 -24 -343 -69 -46 -17 -96 -31 -112 -31 -25 0 -30 5 -36 35 -12 66 0 144
27 169 47 45 213 102 364 126 82 12 297 4 370 -15z m3558 -8 c112 -32 172 -67
186 -108 17 -50 14 -133 -7 -159 -17 -21 -18 -21 -62 -5 -161 60 -201 68 -340
69 -105 1 -146 -3 -186 -17 -93 -32 -141 -104 -131 -194 11 -98 74 -141 329
-224 305 -99 388 -150 451 -278 30 -62 32 -72 32 -176 0 -102 -2 -115 -31
-175 -92 -192 -297 -300 -573 -300 -157 0 -380 51 -463 105 -44 29 -63 83 -55
158 8 84 15 86 168 33 276 -94 546 -78 634 37 42 57 50 142 17 202 -31 58
-117 101 -327 165 -77 23 -177 60 -222 81 -177 87 -268 250 -242 434 13 93 51
166 124 233 74 69 140 106 237 132 107 29 336 23 461 -13z m-2773 -20 c14 -7
30 -24 37 -37 10 -22 142 -529 260 -1004 25 -100 39 -142 44 -130 4 11 65 262
135 559 69 297 132 555 140 573 18 45 51 54 171 50 88 -3 106 -6 123 -24 20
-19 104 -353 256 -1016 21 -92 41 -164 45 -160 4 4 48 169 99 367 51 198 117
453 146 567 29 114 59 216 66 227 19 31 61 41 164 41 108 0 130 -11 118 -64
-3 -17 -62 -209 -129 -426 -68 -217 -160 -514 -205 -660 -101 -326 -105 -337
-141 -355 -33 -17 -203 -21 -243 -5 -36 13 -50 49 -101 265 -84 358 -205 860
-210 874 -3 8 -7 12 -10 10 -2 -3 -63 -251 -135 -553 -71 -301 -135 -556 -140
-566 -17 -31 -74 -43 -182 -38 -80 4 -103 9 -118 24 -17 17 -82 219 -280 874
-34 113 -84 277 -111 364 -81 263 -83 256 74 256 62 0 112 -5 127 -13z m3165
-1888 c83 -29 95 -45 95 -141 0 -132 -54 -333 -131 -484 -94 -183 -250 -336
-275 -269 -4 8 21 88 54 177 68 183 100 300 109 394 7 75 -9 107 -64 130 -54
23 -220 28 -393 13 -225 -19 -254 -19 -258 6 -8 58 202 159 403 195 28 5 127
8 220 6 150 -2 178 -6 240 -27z m-4903 -100 c29 -17 123 -66 209 -109 734
-368 1556 -554 2369 -537 140 3 320 13 400 22 463 50 926 163 1335 324 142 56
180 61 213 31 54 -51 14 -103 -163 -216 -408 -259 -923 -433 -1510 -511 -185
-24 -664 -24 -865 0 -750 92 -1415 379 -1993 860 -108 90 -131 123 -107 152
19 23 54 18 112 -16z"/>
<path d="M3330 5690 c-82 -9 -162 -43 -200 -86 -61 -71 -75 -199 -31 -298 85
-193 494 -126 591 96 17 40 24 78 28 154 l5 102 -50 10 c-45 10 -107 17 -233
26 -25 2 -74 0 -110 -4z"/>
</g>
</svg>
