<svg width="421" height="421" viewBox="0 0 421 421" fill="none" xmlns="http://www.w3.org/2000/svg">
<g filter="url(#filter0_f_9_50)">
<circle cx="210.5" cy="210.5" r="154.5" fill="url(#paint0_radial_9_50)"/>
</g>
<rect x="175.5" y="94.5" width="70" height="123" rx="33.5" stroke="#171037" stroke-width="13"/>
<line x1="177" y1="170.5" x2="243" y2="170.5" stroke="#171037" stroke-width="13"/>
<circle cx="210" cy="119" r="5.5" fill="#171037" stroke="#171037"/>
<circle cx="202" cy="137" r="5.5" fill="#171037" stroke="#171037"/>
<circle cx="225" cy="134" r="5.5" fill="#171037" stroke="#171037"/>
<circle cx="231" cy="113" r="5.5" fill="#171037" stroke="#171037"/>
<circle cx="237" cy="154" r="5.5" fill="#171037" stroke="#171037"/>
<circle cx="216" cy="154" r="5.5" fill="#171037" stroke="#171037"/>
<circle cx="192" cy="154" r="5.5" fill="#171037" stroke="#171037"/>
<circle cx="192" cy="107" r="5.5" fill="#171037" stroke="#171037"/>
<circle cx="186" cy="128" r="5.5" fill="#171037" stroke="#171037"/>
<path d="M157 191.5C166.5 253 257.5 254 263.5 191.5" stroke="#171037" stroke-width="13" stroke-linecap="round"/>
<path d="M203.5 266C203.5 269.59 206.41 272.5 210 272.5C213.59 272.5 216.5 269.59 216.5 266L203.5 266ZM216.5 266L216.5 238L203.5 238L203.5 266L216.5 266Z" fill="#171037"/>
<path d="M108 273L159.5 236M210.5 327.5C194 304 127.5 293 108 298.5M210.5 302.5C194 279 135.5 271 108 273.5" stroke="#171037" stroke-width="13" stroke-linecap="round"/>
<path d="M113.662 297.441C114.457 300.941 117.94 303.134 121.441 302.338C124.941 301.543 127.134 298.06 126.338 294.559L113.662 297.441ZM108.662 275.441L113.662 297.441L126.338 294.559L121.338 272.559L108.662 275.441Z" fill="#171037"/>
<path d="M313.5 273L262 236M211 327.5C227.5 304 294 293 313.5 298.5M211 302.5C227.5 279 286 271 313.5 273.5" stroke="#171037" stroke-width="13" stroke-linecap="round"/>
<path d="M307.839 297.441C307.043 300.941 303.56 303.134 300.06 302.338C296.559 301.543 294.366 298.06 295.162 294.559L307.839 297.441ZM312.839 275.441L307.839 297.441L295.162 294.559L300.162 272.559L312.839 275.441Z" fill="#171037"/>
<defs>
<filter id="filter0_f_9_50" x="0.599998" y="0.599998" width="419.8" height="419.8" filterUnits="userSpaceOnUse" color-interpolation-filters="sRGB">
<feFlood flood-opacity="0" result="BackgroundImageFix"/>
<feBlend mode="normal" in="SourceGraphic" in2="BackgroundImageFix" result="shape"/>
<feGaussianBlur stdDeviation="27.7" result="effect1_foregroundBlur_9_50"/>
</filter>
<radialGradient id="paint0_radial_9_50" cx="0" cy="0" r="1" gradientUnits="userSpaceOnUse" gradientTransform="translate(210.5 210.5) rotate(90) scale(154.5)">
<stop offset="0.415" stop-color="#FC93C2"/>
<stop offset="1" stop-color="#999588" stop-opacity="0"/>
</radialGradient>
</defs>
</svg>
